# MagicaVoxel @ Ephtracy

# group
g Player

# material
mtllib Player.mtl
usemtl palette

# normals
vn -1 0 0
vn 1 0 0
vn 0 0 1
vn 0 0 -1
vn 0 -1 0
vn 0 1 0

# texcoords
vt 0.00195313 0.5
vt 0.00585938 0.5
vt 0.0136719 0.5
vt 0.0175781 0.5
vt 0.0332031 0.5
vt 0.0527344 0.5
vt 0.0566406 0.5

# verts
v -3.5 0 2.5
v -3.5 0 0.5
v -3.5 0 -0.5
v -3.5 0 -2.5
v -3.5 2 2.5
v -3.5 2 1.5
v -3.5 2 0.5
v -3.5 2 -0.5
v -3.5 2 -1.5
v -3.5 2 -2.5
v -3.5 4 1.5
v -3.5 4 0.5
v -3.5 4 -0.5
v -3.5 4 -1.5
v -3.5 6 1.5
v -3.5 6 -1.5
v -3.5 7 1.5
v -3.5 7 -1.5
v -3.5 8 1.5
v -3.5 8 -1.5
v -3.5 12 1.5
v -3.5 12 -1.5
v -2.5 4 1.5
v -2.5 4 0.5
v -2.5 4 -0.5
v -2.5 4 -1.5
v -2.5 6 1.5
v -2.5 6 0.5
v -2.5 6 -0.5
v -2.5 6 -1.5
v -2.5 11 2.5
v -2.5 11 1.5
v -2.5 11 -1.5
v -2.5 11 -2.5
v -2.5 12 2.5
v -2.5 12 1.5
v -2.5 12 0.5
v -2.5 12 -0.5
v -2.5 12 -1.5
v -2.5 12 -2.5
v -2.5 13 0.5
v -2.5 13 -0.5
v -1.5 1 2.5
v -1.5 1 0.5
v -1.5 1 -0.5
v -1.5 1 -2.5
v -1.5 2 2.5
v -1.5 2 1.5
v -1.5 2 0.5
v -1.5 2 -0.5
v -1.5 2 -1.5
v -1.5 2 -2.5
v -1.5 6 0.5
v -1.5 6 -0.5
v -1.5 7 1.5
v -1.5 7 0.5
v -1.5 7 -0.5
v -1.5 7 -1.5
v -1.5 8 1.5
v -1.5 8 0.5
v -1.5 8 -0.5
v -1.5 8 -1.5
v -1.5 11 1.5
v -1.5 11 -1.5
v -1.5 12 1.5
v -1.5 12 0.5
v -1.5 12 -0.5
v -1.5 12 -1.5
v -1.5 13 0.5
v -1.5 13 -0.5
v -0.5 0 2.5
v -0.5 0 0.5
v -0.5 0 -0.5
v -0.5 0 -2.5
v -0.5 1 2.5
v -0.5 1 0.5
v -0.5 1 -0.5
v -0.5 1 -2.5
v 3.5 11 2.5
v 3.5 11 1.5
v 3.5 11 -1.5
v 3.5 11 -2.5
v 3.5 12 2.5
v 3.5 12 1.5
v 3.5 12 -1.5
v 3.5 12 -2.5
v -3.5 0 2.5
v -3.5 2 2.5
v -2.5 0 2.5
v -2.5 1 2.5
v -2.5 11 2.5
v -2.5 12 2.5
v -1.5 1 2.5
v -1.5 2 2.5
v -1.5 11 2.5
v -1.5 12 2.5
v -0.5 0 2.5
v -0.5 1 2.5
v 1.5 11 2.5
v 1.5 12 2.5
v 2.5 11 2.5
v 2.5 12 2.5
v 3.5 11 2.5
v 3.5 12 2.5
v -3.5 2 1.5
v -3.5 4 1.5
v -3.5 6 1.5
v -3.5 7 1.5
v -3.5 8 1.5
v -3.5 12 1.5
v -2.5 4 1.5
v -2.5 6 1.5
v -2.5 11 1.5
v -2.5 12 1.5
v -1.5 2 1.5
v -1.5 7 1.5
v -1.5 8 1.5
v -1.5 11 1.5
v -2.5 12 0.5
v -2.5 13 0.5
v -1.5 12 0.5
v -1.5 13 0.5
v -3.5 0 -0.5
v -3.5 2 -0.5
v -3.5 4 -0.5
v -2.5 0 -0.5
v -2.5 1 -0.5
v -2.5 4 -0.5
v -2.5 6 -0.5
v -1.5 1 -0.5
v -1.5 2 -0.5
v -1.5 6 -0.5
v -0.5 0 -0.5
v -0.5 1 -0.5
v -1.5 11 -1.5
v -1.5 12 -1.5
v 0.5 11 -1.5
v 0.5 12 -1.5
v 2.5 11 -1.5
v 2.5 12 -1.5
v 3.5 11 -1.5
v 3.5 12 -1.5
v -1.5 11 1.5
v -1.5 12 1.5
v 1.5 11 1.5
v 1.5 12 1.5
v 2.5 11 1.5
v 2.5 12 1.5
v 3.5 11 1.5
v 3.5 12 1.5
v -3.5 0 0.5
v -3.5 2 0.5
v -3.5 4 0.5
v -2.5 0 0.5
v -2.5 1 0.5
v -2.5 4 0.5
v -2.5 6 0.5
v -1.5 1 0.5
v -1.5 2 0.5
v -1.5 6 0.5
v -0.5 0 0.5
v -0.5 1 0.5
v -2.5 12 -0.5
v -2.5 13 -0.5
v -1.5 12 -0.5
v -1.5 13 -0.5
v -3.5 2 -1.5
v -3.5 4 -1.5
v -3.5 6 -1.5
v -3.5 7 -1.5
v -3.5 8 -1.5
v -3.5 12 -1.5
v -2.5 4 -1.5
v -2.5 6 -1.5
v -2.5 11 -1.5
v -2.5 12 -1.5
v -1.5 2 -1.5
v -1.5 7 -1.5
v -1.5 8 -1.5
v -1.5 11 -1.5
v -3.5 0 -2.5
v -3.5 2 -2.5
v -2.5 0 -2.5
v -2.5 1 -2.5
v -2.5 11 -2.5
v -2.5 12 -2.5
v -1.5 1 -2.5
v -1.5 2 -2.5
v -1.5 11 -2.5
v -1.5 12 -2.5
v -0.5 0 -2.5
v -0.5 1 -2.5
v 0.5 11 -2.5
v 0.5 12 -2.5
v 2.5 11 -2.5
v 2.5 12 -2.5
v 3.5 11 -2.5
v 3.5 12 -2.5
v -3.5 0 2.5
v -2.5 0 2.5
v -0.5 0 2.5
v -3.5 0 0.5
v -2.5 0 0.5
v -0.5 0 0.5
v -3.5 0 -0.5
v -2.5 0 -0.5
v -0.5 0 -0.5
v -3.5 0 -2.5
v -2.5 0 -2.5
v -0.5 0 -2.5
v -3.5 6 1.5
v -2.5 6 1.5
v -2.5 6 0.5
v -1.5 6 0.5
v -2.5 6 -0.5
v -1.5 6 -0.5
v -3.5 6 -1.5
v -2.5 6 -1.5
v -2.5 11 2.5
v -1.5 11 2.5
v 1.5 11 2.5
v 2.5 11 2.5
v 3.5 11 2.5
v -2.5 11 1.5
v -1.5 11 1.5
v 1.5 11 1.5
v 2.5 11 1.5
v 3.5 11 1.5
v -2.5 11 -1.5
v -1.5 11 -1.5
v 0.5 11 -1.5
v 2.5 11 -1.5
v 3.5 11 -1.5
v -2.5 11 -2.5
v -1.5 11 -2.5
v 0.5 11 -2.5
v 2.5 11 -2.5
v 3.5 11 -2.5
v -1.5 1 2.5
v -0.5 1 2.5
v -1.5 1 0.5
v -0.5 1 0.5
v -1.5 1 -0.5
v -0.5 1 -0.5
v -1.5 1 -2.5
v -0.5 1 -2.5
v -3.5 2 2.5
v -1.5 2 2.5
v -3.5 2 1.5
v -1.5 2 1.5
v -3.5 2 -1.5
v -1.5 2 -1.5
v -3.5 2 -2.5
v -1.5 2 -2.5
v -3.5 4 1.5
v -2.5 4 1.5
v -3.5 4 0.5
v -2.5 4 0.5
v -3.5 4 -0.5
v -2.5 4 -0.5
v -3.5 4 -1.5
v -2.5 4 -1.5
v -2.5 12 2.5
v -1.5 12 2.5
v 1.5 12 2.5
v 2.5 12 2.5
v 3.5 12 2.5
v -3.5 12 1.5
v -2.5 12 1.5
v -1.5 12 1.5
v 1.5 12 1.5
v 2.5 12 1.5
v 3.5 12 1.5
v -2.5 12 0.5
v -1.5 12 0.5
v -2.5 12 -0.5
v -1.5 12 -0.5
v -3.5 12 -1.5
v -2.5 12 -1.5
v -1.5 12 -1.5
v 0.5 12 -1.5
v 2.5 12 -1.5
v 3.5 12 -1.5
v -2.5 12 -2.5
v -1.5 12 -2.5
v 0.5 12 -2.5
v 2.5 12 -2.5
v 3.5 12 -2.5
v -2.5 13 0.5
v -1.5 13 0.5
v -2.5 13 -0.5
v -1.5 13 -0.5

# faces
f 5/1/1 2/1/1 1/1/1
f 6/1/1 2/1/1 5/1/1
f 7/1/1 2/1/1 6/1/1
f 8/1/1 4/1/1 3/1/1
f 9/1/1 4/1/1 8/1/1
f 10/1/1 4/1/1 9/1/1
f 11/3/1 7/3/1 6/3/1
f 12/3/1 7/3/1 11/3/1
f 13/3/1 9/3/1 8/3/1
f 14/3/1 9/3/1 13/3/1
f 17/3/1 16/3/1 15/3/1
f 18/3/1 16/3/1 17/3/1
f 19/2/1 18/2/1 17/2/1
f 20/2/1 18/2/1 19/2/1
f 21/4/1 20/4/1 19/4/1
f 22/4/1 20/4/1 21/4/1
f 27/3/1 24/3/1 23/3/1
f 28/3/1 24/3/1 27/3/1
f 29/3/1 26/3/1 25/3/1
f 30/3/1 26/3/1 29/3/1
f 35/4/1 32/4/1 31/4/1
f 36/4/1 32/4/1 35/4/1
f 39/4/1 34/4/1 33/4/1
f 40/4/1 34/4/1 39/4/1
f 41/5/1 38/5/1 37/5/1
f 42/5/1 38/5/1 41/5/1
f 43/1/2 44/1/2 47/1/2
f 47/1/2 44/1/2 48/1/2
f 48/1/2 44/1/2 49/1/2
f 45/1/2 46/1/2 50/1/2
f 50/1/2 46/1/2 51/1/2
f 51/1/2 46/1/2 52/1/2
f 48/3/2 49/3/2 53/3/2
f 50/3/2 51/3/2 54/3/2
f 48/3/2 53/3/2 55/3/2
f 53/3/2 54/3/2 55/3/2
f 55/3/2 54/3/2 56/3/2
f 54/3/2 51/3/2 57/3/2
f 56/3/2 54/3/2 57/3/2
f 57/3/2 51/3/2 58/3/2
f 55/2/2 56/2/2 59/2/2
f 56/6/2 57/6/2 60/6/2
f 59/2/2 56/2/2 60/2/2
f 57/2/2 58/2/2 61/2/2
f 60/6/2 57/6/2 61/6/2
f 61/2/2 58/2/2 62/2/2
f 59/4/2 60/4/2 63/4/2
f 60/4/2 61/4/2 63/4/2
f 61/4/2 62/4/2 63/4/2
f 63/4/2 62/4/2 64/4/2
f 63/4/2 64/4/2 65/4/2
f 65/4/2 64/4/2 66/4/2
f 66/4/2 64/4/2 67/4/2
f 67/4/2 64/4/2 68/4/2
f 66/5/2 67/5/2 69/5/2
f 69/5/2 67/5/2 70/5/2
f 71/2/2 72/2/2 75/2/2
f 75/2/2 72/2/2 76/2/2
f 73/2/2 74/2/2 77/2/2
f 77/2/2 74/2/2 78/2/2
f 79/7/2 80/7/2 83/7/2
f 83/7/2 80/7/2 84/7/2
f 81/7/2 82/7/2 85/7/2
f 85/7/2 82/7/2 86/7/2
f 89/1/3 88/1/3 87/1/3
f 90/1/3 88/1/3 89/1/3
f 93/2/3 90/2/3 89/2/3
f 93/1/3 88/1/3 90/1/3
f 94/1/3 88/1/3 93/1/3
f 95/4/3 92/4/3 91/4/3
f 96/4/3 92/4/3 95/4/3
f 97/2/3 93/2/3 89/2/3
f 98/2/3 93/2/3 97/2/3
f 99/7/3 96/7/3 95/7/3
f 100/7/3 96/7/3 99/7/3
f 101/6/3 100/6/3 99/6/3
f 102/6/3 100/6/3 101/6/3
f 103/7/3 102/7/3 101/7/3
f 104/7/3 102/7/3 103/7/3
f 111/3/3 106/3/3 105/3/3
f 112/3/3 108/3/3 107/3/3
f 113/4/3 110/4/3 109/4/3
f 114/4/3 110/4/3 113/4/3
f 115/3/3 112/3/3 111/3/3
f 115/3/3 111/3/3 105/3/3
f 116/2/3 109/2/3 108/2/3
f 116/3/3 112/3/3 115/3/3
f 116/3/3 108/3/3 112/3/3
f 117/4/3 113/4/3 109/4/3
f 117/2/3 109/2/3 116/2/3
f 118/4/3 113/4/3 117/4/3
f 121/5/3 120/5/3 119/5/3
f 122/5/3 120/5/3 121/5/3
f 126/1/3 124/1/3 123/1/3
f 127/1/3 124/1/3 126/1/3
f 128/3/3 125/3/3 124/3/3
f 130/1/3 124/1/3 127/1/3
f 130/2/3 127/2/3 126/2/3
f 131/3/3 129/3/3 128/3/3
f 131/1/3 124/1/3 130/1/3
f 131/3/3 128/3/3 124/3/3
f 132/3/3 129/3/3 131/3/3
f 133/2/3 130/2/3 126/2/3
f 134/2/3 130/2/3 133/2/3
f 137/7/3 136/7/3 135/7/3
f 138/7/3 136/7/3 137/7/3
f 139/6/3 138/6/3 137/6/3
f 140/6/3 138/6/3 139/6/3
f 141/7/3 140/7/3 139/7/3
f 142/7/3 140/7/3 141/7/3
f 143/7/4 144/7/4 145/7/4
f 145/7/4 144/7/4 146/7/4
f 145/6/4 146/6/4 147/6/4
f 147/6/4 146/6/4 148/6/4
f 147/7/4 148/7/4 149/7/4
f 149/7/4 148/7/4 150/7/4
f 151/1/4 152/1/4 154/1/4
f 154/1/4 152/1/4 155/1/4
f 152/3/4 153/3/4 156/3/4
f 155/1/4 152/1/4 158/1/4
f 154/2/4 155/2/4 158/2/4
f 156/3/4 157/3/4 159/3/4
f 158/1/4 152/1/4 159/1/4
f 152/3/4 156/3/4 159/3/4
f 159/3/4 157/3/4 160/3/4
f 154/2/4 158/2/4 161/2/4
f 161/2/4 158/2/4 162/2/4
f 163/5/4 164/5/4 165/5/4
f 165/5/4 164/5/4 166/5/4
f 167/3/4 168/3/4 173/3/4
f 169/3/4 170/3/4 174/3/4
f 171/4/4 172/4/4 175/4/4
f 175/4/4 172/4/4 176/4/4
f 173/3/4 174/3/4 177/3/4
f 167/3/4 173/3/4 177/3/4
f 170/2/4 171/2/4 178/2/4
f 177/3/4 174/3/4 178/3/4
f 174/3/4 170/3/4 178/3/4
f 171/4/4 175/4/4 179/4/4
f 178/2/4 171/2/4 179/2/4
f 179/4/4 175/4/4 180/4/4
f 181/1/4 182/1/4 183/1/4
f 183/1/4 182/1/4 184/1/4
f 183/2/4 184/2/4 187/2/4
f 184/1/4 182/1/4 187/1/4
f 187/1/4 182/1/4 188/1/4
f 185/4/4 186/4/4 189/4/4
f 189/4/4 186/4/4 190/4/4
f 183/2/4 187/2/4 191/2/4
f 191/2/4 187/2/4 192/2/4
f 189/7/4 190/7/4 193/7/4
f 193/7/4 190/7/4 194/7/4
f 193/6/4 194/6/4 195/6/4
f 195/6/4 194/6/4 196/6/4
f 195/7/4 196/7/4 197/7/4
f 197/7/4 196/7/4 198/7/4
f 202/1/5 200/1/5 199/1/5
f 203/2/5 201/2/5 200/2/5
f 203/1/5 200/1/5 202/1/5
f 204/2/5 201/2/5 203/2/5
f 208/1/5 206/1/5 205/1/5
f 209/2/5 207/2/5 206/2/5
f 209/1/5 206/1/5 208/1/5
f 210/2/5 207/2/5 209/2/5
f 213/3/5 212/3/5 211/3/5
f 215/3/5 213/3/5 211/3/5
f 215/3/5 214/3/5 213/3/5
f 216/3/5 214/3/5 215/3/5
f 217/3/5 215/3/5 211/3/5
f 218/3/5 215/3/5 217/3/5
f 224/4/5 220/4/5 219/4/5
f 225/7/5 221/7/5 220/7/5
f 225/4/5 220/4/5 224/4/5
f 226/6/5 222/6/5 221/6/5
f 226/7/5 221/7/5 225/7/5
f 227/7/5 223/7/5 222/7/5
f 227/6/5 222/6/5 226/6/5
f 228/7/5 223/7/5 227/7/5
f 234/4/5 230/4/5 229/4/5
f 235/7/5 231/7/5 230/7/5
f 235/4/5 230/4/5 234/4/5
f 236/6/5 232/6/5 231/6/5
f 236/7/5 231/7/5 235/7/5
f 237/7/5 233/7/5 232/7/5
f 237/6/5 232/6/5 236/6/5
f 238/7/5 233/7/5 237/7/5
f 239/2/6 240/2/6 241/2/6
f 241/2/6 240/2/6 242/2/6
f 243/2/6 244/2/6 245/2/6
f 245/2/6 244/2/6 246/2/6
f 247/1/6 248/1/6 249/1/6
f 249/1/6 248/1/6 250/1/6
f 251/1/6 252/1/6 253/1/6
f 253/1/6 252/1/6 254/1/6
f 255/3/6 256/3/6 257/3/6
f 257/3/6 256/3/6 258/3/6
f 259/3/6 260/3/6 261/3/6
f 261/3/6 260/3/6 262/3/6
f 263/4/6 264/4/6 269/4/6
f 264/7/6 265/7/6 270/7/6
f 269/4/6 264/4/6 270/4/6
f 265/6/6 266/6/6 271/6/6
f 270/7/6 265/7/6 271/7/6
f 266/7/6 267/7/6 272/7/6
f 271/6/6 266/6/6 272/6/6
f 272/7/6 267/7/6 273/7/6
f 268/4/6 269/4/6 274/4/6
f 269/4/6 270/4/6 274/4/6
f 274/4/6 270/4/6 275/4/6
f 268/4/6 274/4/6 276/4/6
f 268/4/6 276/4/6 278/4/6
f 276/4/6 277/4/6 278/4/6
f 278/4/6 277/4/6 279/4/6
f 279/4/6 277/4/6 280/4/6
f 279/4/6 280/4/6 284/4/6
f 280/7/6 281/7/6 285/7/6
f 284/4/6 280/4/6 285/4/6
f 281/6/6 282/6/6 286/6/6
f 285/7/6 281/7/6 286/7/6
f 282/7/6 283/7/6 287/7/6
f 286/6/6 282/6/6 287/6/6
f 287/7/6 283/7/6 288/7/6
f 289/5/6 290/5/6 291/5/6
f 291/5/6 290/5/6 292/5/6
